<mxfile host="app.diagrams.net" agent="Mozilla/5.0 (Windows NT 10.0; Win64; x64; rv:137.0) Gecko/20100101 Firefox/137.0" version="26.1.0">
  <diagram name="Page-1" id="pJQkfAfpMvx2vDXl0aS4">
    <mxGraphModel dx="2097" dy="653" grid="1" gridSize="10" guides="1" tooltips="1" connect="1" arrows="1" fold="1" page="1" pageScale="1" pageWidth="850" pageHeight="1100" math="0" shadow="0">
      <root>
        <mxCell id="0" />
        <mxCell id="1" parent="0" />
        <mxCell id="woPbn98t3P-iTWukvZgP-1" value="" style="rounded=0;whiteSpace=wrap;html=1;" parent="1" vertex="1">
          <mxGeometry x="-40" y="10" width="850" height="1820" as="geometry" />
        </mxCell>
        <mxCell id="woPbn98t3P-iTWukvZgP-10" value="Manage rooms availability" style="ellipse;whiteSpace=wrap;html=1;" parent="1" vertex="1">
          <mxGeometry x="150" y="60" width="120" height="80" as="geometry" />
        </mxCell>
        <mxCell id="woPbn98t3P-iTWukvZgP-11" value="Manage pricing" style="ellipse;whiteSpace=wrap;html=1;" parent="1" vertex="1">
          <mxGeometry x="150" y="150" width="120" height="80" as="geometry" />
        </mxCell>
        <mxCell id="woPbn98t3P-iTWukvZgP-12" value="Manage check in/out allowance" style="ellipse;whiteSpace=wrap;html=1;" parent="1" vertex="1">
          <mxGeometry x="150" y="240" width="120" height="80" as="geometry" />
        </mxCell>
        <mxCell id="woPbn98t3P-iTWukvZgP-13" value="Manage rooms &amp;amp; rates" style="ellipse;whiteSpace=wrap;html=1;" parent="1" vertex="1">
          <mxGeometry x="150" y="330" width="120" height="80" as="geometry" />
        </mxCell>
        <mxCell id="woPbn98t3P-iTWukvZgP-15" value="Generate &amp;amp; view Reports" style="ellipse;whiteSpace=wrap;html=1;" parent="1" vertex="1">
          <mxGeometry x="150" y="420" width="120" height="80" as="geometry" />
        </mxCell>
        <mxCell id="woPbn98t3P-iTWukvZgP-16" value="Verify access" style="ellipse;whiteSpace=wrap;html=1;" parent="1" vertex="1">
          <mxGeometry x="610" y="240" width="120" height="80" as="geometry" />
        </mxCell>
        <mxCell id="woPbn98t3P-iTWukvZgP-17" value="Authenticate" style="ellipse;whiteSpace=wrap;html=1;" parent="1" vertex="1">
          <mxGeometry x="610" y="770" width="120" height="80" as="geometry" />
        </mxCell>
        <mxCell id="woPbn98t3P-iTWukvZgP-18" value="&amp;lt;&amp;lt;include&amp;gt;&amp;gt;" style="html=1;verticalAlign=bottom;labelBackgroundColor=none;endArrow=open;endFill=0;dashed=1;rounded=0;exitX=1;exitY=0.5;exitDx=0;exitDy=0;entryX=1;entryY=0;entryDx=0;entryDy=0;" parent="1" source="woPbn98t3P-iTWukvZgP-10" target="woPbn98t3P-iTWukvZgP-17" edge="1">
          <mxGeometry width="160" relative="1" as="geometry">
            <mxPoint x="280" y="110" as="sourcePoint" />
            <mxPoint x="440" y="110" as="targetPoint" />
          </mxGeometry>
        </mxCell>
        <mxCell id="woPbn98t3P-iTWukvZgP-19" value="&amp;lt;&amp;lt;include&amp;gt;&amp;gt;" style="html=1;verticalAlign=bottom;labelBackgroundColor=none;endArrow=open;endFill=0;dashed=1;rounded=0;entryX=0.5;entryY=0;entryDx=0;entryDy=0;" parent="1" target="woPbn98t3P-iTWukvZgP-17" edge="1">
          <mxGeometry width="160" relative="1" as="geometry">
            <mxPoint x="270" y="190" as="sourcePoint" />
            <mxPoint x="435" y="190" as="targetPoint" />
          </mxGeometry>
        </mxCell>
        <mxCell id="woPbn98t3P-iTWukvZgP-20" value="&amp;lt;&amp;lt;include&amp;gt;&amp;gt;" style="html=1;verticalAlign=bottom;labelBackgroundColor=none;endArrow=open;endFill=0;dashed=1;rounded=0;entryX=0;entryY=0;entryDx=0;entryDy=0;exitX=1;exitY=0.5;exitDx=0;exitDy=0;" parent="1" source="woPbn98t3P-iTWukvZgP-12" target="woPbn98t3P-iTWukvZgP-17" edge="1">
          <mxGeometry width="160" relative="1" as="geometry">
            <mxPoint x="280" y="200" as="sourcePoint" />
            <mxPoint x="393" y="202" as="targetPoint" />
          </mxGeometry>
        </mxCell>
        <mxCell id="woPbn98t3P-iTWukvZgP-21" value="&amp;lt;&amp;lt;include&amp;gt;&amp;gt;" style="html=1;verticalAlign=bottom;labelBackgroundColor=none;endArrow=open;endFill=0;dashed=1;rounded=0;entryX=0;entryY=0;entryDx=0;entryDy=0;exitX=1;exitY=0.5;exitDx=0;exitDy=0;" parent="1" source="woPbn98t3P-iTWukvZgP-13" target="woPbn98t3P-iTWukvZgP-17" edge="1">
          <mxGeometry width="160" relative="1" as="geometry">
            <mxPoint x="280" y="290" as="sourcePoint" />
            <mxPoint x="375" y="230" as="targetPoint" />
          </mxGeometry>
        </mxCell>
        <mxCell id="woPbn98t3P-iTWukvZgP-22" value="&amp;lt;&amp;lt;include&amp;gt;&amp;gt;" style="html=1;verticalAlign=bottom;labelBackgroundColor=none;endArrow=open;endFill=0;dashed=1;rounded=0;entryX=0;entryY=0.5;entryDx=0;entryDy=0;exitX=1;exitY=0.5;exitDx=0;exitDy=0;" parent="1" source="woPbn98t3P-iTWukvZgP-15" target="woPbn98t3P-iTWukvZgP-17" edge="1">
          <mxGeometry width="160" relative="1" as="geometry">
            <mxPoint x="280" y="380" as="sourcePoint" />
            <mxPoint x="618" y="768" as="targetPoint" />
          </mxGeometry>
        </mxCell>
        <mxCell id="woPbn98t3P-iTWukvZgP-24" value="&amp;lt;&amp;lt;extend&amp;gt;&amp;gt;" style="html=1;verticalAlign=bottom;labelBackgroundColor=none;endArrow=open;endFill=0;dashed=1;rounded=0;exitX=0;exitY=0.5;exitDx=0;exitDy=0;entryX=1;entryY=0.5;entryDx=0;entryDy=0;" parent="1" source="woPbn98t3P-iTWukvZgP-16" target="woPbn98t3P-iTWukvZgP-10" edge="1">
          <mxGeometry width="160" relative="1" as="geometry">
            <mxPoint x="460" y="210" as="sourcePoint" />
            <mxPoint x="620" y="210" as="targetPoint" />
          </mxGeometry>
        </mxCell>
        <mxCell id="woPbn98t3P-iTWukvZgP-25" value="&amp;lt;&amp;lt;extend&amp;gt;&amp;gt;" style="html=1;verticalAlign=bottom;labelBackgroundColor=none;endArrow=open;endFill=0;dashed=1;rounded=0;exitX=0;exitY=0.5;exitDx=0;exitDy=0;entryX=1;entryY=0.5;entryDx=0;entryDy=0;" parent="1" source="woPbn98t3P-iTWukvZgP-16" target="woPbn98t3P-iTWukvZgP-11" edge="1">
          <mxGeometry width="160" relative="1" as="geometry">
            <mxPoint x="610" y="250" as="sourcePoint" />
            <mxPoint x="280" y="110" as="targetPoint" />
          </mxGeometry>
        </mxCell>
        <mxCell id="woPbn98t3P-iTWukvZgP-26" value="&amp;lt;&amp;lt;extend&amp;gt;&amp;gt;" style="html=1;verticalAlign=bottom;labelBackgroundColor=none;endArrow=open;endFill=0;dashed=1;rounded=0;exitX=0;exitY=0.5;exitDx=0;exitDy=0;entryX=1;entryY=0.5;entryDx=0;entryDy=0;" parent="1" source="woPbn98t3P-iTWukvZgP-16" target="woPbn98t3P-iTWukvZgP-12" edge="1">
          <mxGeometry width="160" relative="1" as="geometry">
            <mxPoint x="550" y="290" as="sourcePoint" />
            <mxPoint x="280" y="200" as="targetPoint" />
          </mxGeometry>
        </mxCell>
        <mxCell id="woPbn98t3P-iTWukvZgP-27" value="&amp;lt;&amp;lt;extend&amp;gt;&amp;gt;" style="html=1;verticalAlign=bottom;labelBackgroundColor=none;endArrow=open;endFill=0;dashed=1;rounded=0;exitX=0;exitY=0.5;exitDx=0;exitDy=0;entryX=1;entryY=0.5;entryDx=0;entryDy=0;" parent="1" source="woPbn98t3P-iTWukvZgP-16" target="woPbn98t3P-iTWukvZgP-13" edge="1">
          <mxGeometry width="160" relative="1" as="geometry">
            <mxPoint x="550" y="290" as="sourcePoint" />
            <mxPoint x="280" y="290" as="targetPoint" />
          </mxGeometry>
        </mxCell>
        <mxCell id="woPbn98t3P-iTWukvZgP-28" value="&amp;lt;&amp;lt;extend&amp;gt;&amp;gt;" style="html=1;verticalAlign=bottom;labelBackgroundColor=none;endArrow=open;endFill=0;dashed=1;rounded=0;exitX=0;exitY=0.5;exitDx=0;exitDy=0;entryX=1;entryY=0.5;entryDx=0;entryDy=0;" parent="1" source="woPbn98t3P-iTWukvZgP-16" target="woPbn98t3P-iTWukvZgP-15" edge="1">
          <mxGeometry width="160" relative="1" as="geometry">
            <mxPoint x="550" y="290" as="sourcePoint" />
            <mxPoint x="280" y="380" as="targetPoint" />
          </mxGeometry>
        </mxCell>
        <mxCell id="DD-lqxEj_kKFfVJaps85-12" value="Manage hotel details" style="ellipse;whiteSpace=wrap;html=1;" parent="1" vertex="1">
          <mxGeometry x="150" y="510" width="120" height="80" as="geometry" />
        </mxCell>
        <mxCell id="DD-lqxEj_kKFfVJaps85-13" value="&lt;div&gt;Manage staff and their access&lt;/div&gt;" style="ellipse;whiteSpace=wrap;html=1;" parent="1" vertex="1">
          <mxGeometry x="150" y="600" width="120" height="80" as="geometry" />
        </mxCell>
        <mxCell id="DD-lqxEj_kKFfVJaps85-14" value="&amp;lt;&amp;lt;include&amp;gt;&amp;gt;" style="html=1;verticalAlign=bottom;labelBackgroundColor=none;endArrow=open;endFill=0;dashed=1;rounded=0;entryX=0;entryY=0.5;entryDx=0;entryDy=0;exitX=1;exitY=0.5;exitDx=0;exitDy=0;" parent="1" source="DD-lqxEj_kKFfVJaps85-12" target="woPbn98t3P-iTWukvZgP-17" edge="1">
          <mxGeometry width="160" relative="1" as="geometry">
            <mxPoint x="280" y="470" as="sourcePoint" />
            <mxPoint x="638" y="768" as="targetPoint" />
          </mxGeometry>
        </mxCell>
        <mxCell id="DD-lqxEj_kKFfVJaps85-15" value="&amp;lt;&amp;lt;include&amp;gt;&amp;gt;" style="html=1;verticalAlign=bottom;labelBackgroundColor=none;endArrow=open;endFill=0;dashed=1;rounded=0;exitX=1;exitY=0.5;exitDx=0;exitDy=0;entryX=0;entryY=0.5;entryDx=0;entryDy=0;" parent="1" source="DD-lqxEj_kKFfVJaps85-13" edge="1" target="woPbn98t3P-iTWukvZgP-17">
          <mxGeometry width="160" relative="1" as="geometry">
            <mxPoint x="280" y="640" as="sourcePoint" />
            <mxPoint x="610" y="870" as="targetPoint" />
          </mxGeometry>
        </mxCell>
        <mxCell id="DD-lqxEj_kKFfVJaps85-24" value="&lt;div&gt;Manage agency details&lt;/div&gt;" style="ellipse;whiteSpace=wrap;html=1;" parent="1" vertex="1">
          <mxGeometry x="150" y="1040" width="120" height="80" as="geometry" />
        </mxCell>
        <mxCell id="DD-lqxEj_kKFfVJaps85-25" value="Browse hotels" style="ellipse;whiteSpace=wrap;html=1;" parent="1" vertex="1">
          <mxGeometry x="150" y="1130" width="120" height="80" as="geometry" />
        </mxCell>
        <mxCell id="DD-lqxEj_kKFfVJaps85-26" value="&lt;div&gt;Manage reservation&lt;/div&gt;" style="ellipse;whiteSpace=wrap;html=1;" parent="1" vertex="1">
          <mxGeometry x="150" y="1220" width="120" height="80" as="geometry" />
        </mxCell>
        <mxCell id="DD-lqxEj_kKFfVJaps85-32" value="&amp;lt;&amp;lt;include&amp;gt;&amp;gt;" style="html=1;verticalAlign=bottom;labelBackgroundColor=none;endArrow=open;endFill=0;dashed=1;rounded=0;exitX=1;exitY=0.5;exitDx=0;exitDy=0;entryX=0;entryY=1;entryDx=0;entryDy=0;" parent="1" source="DD-lqxEj_kKFfVJaps85-24" target="woPbn98t3P-iTWukvZgP-17" edge="1">
          <mxGeometry width="160" relative="1" as="geometry">
            <mxPoint x="280" y="770" as="sourcePoint" />
            <mxPoint x="620" y="740" as="targetPoint" />
          </mxGeometry>
        </mxCell>
        <mxCell id="DD-lqxEj_kKFfVJaps85-33" value="&amp;lt;&amp;lt;include&amp;gt;&amp;gt;" style="html=1;verticalAlign=bottom;labelBackgroundColor=none;endArrow=open;endFill=0;dashed=1;rounded=0;exitX=1;exitY=0.5;exitDx=0;exitDy=0;entryX=0.5;entryY=1;entryDx=0;entryDy=0;" parent="1" source="DD-lqxEj_kKFfVJaps85-25" target="woPbn98t3P-iTWukvZgP-17" edge="1">
          <mxGeometry width="160" relative="1" as="geometry">
            <mxPoint x="280" y="930" as="sourcePoint" />
            <mxPoint x="638" y="768" as="targetPoint" />
          </mxGeometry>
        </mxCell>
        <mxCell id="DD-lqxEj_kKFfVJaps85-34" value="&amp;lt;&amp;lt;include&amp;gt;&amp;gt;" style="html=1;verticalAlign=bottom;labelBackgroundColor=none;endArrow=open;endFill=0;dashed=1;rounded=0;exitX=1;exitY=0.5;exitDx=0;exitDy=0;entryX=1;entryY=1;entryDx=0;entryDy=0;" parent="1" source="DD-lqxEj_kKFfVJaps85-26" target="woPbn98t3P-iTWukvZgP-17" edge="1">
          <mxGeometry width="160" relative="1" as="geometry">
            <mxPoint x="280" y="1020" as="sourcePoint" />
            <mxPoint x="680" y="780" as="targetPoint" />
          </mxGeometry>
        </mxCell>
        <mxCell id="DD-lqxEj_kKFfVJaps85-57" value="&lt;div&gt;Manage accounts&lt;/div&gt;" style="ellipse;whiteSpace=wrap;html=1;" parent="1" vertex="1">
          <mxGeometry x="150" y="731" width="120" height="80" as="geometry" />
        </mxCell>
        <mxCell id="DD-lqxEj_kKFfVJaps85-58" value="Confirm reservation" style="ellipse;whiteSpace=wrap;html=1;" parent="1" vertex="1">
          <mxGeometry x="150" y="821" width="120" height="80" as="geometry" />
        </mxCell>
        <mxCell id="DD-lqxEj_kKFfVJaps85-59" value="Manage profits" style="ellipse;whiteSpace=wrap;html=1;" parent="1" vertex="1">
          <mxGeometry x="150" y="911" width="120" height="80" as="geometry" />
        </mxCell>
        <mxCell id="DD-lqxEj_kKFfVJaps85-64" value="&amp;lt;&amp;lt;include&amp;gt;&amp;gt;" style="html=1;verticalAlign=bottom;labelBackgroundColor=none;endArrow=open;endFill=0;dashed=1;rounded=0;exitX=1;exitY=0.5;exitDx=0;exitDy=0;" parent="1" source="DD-lqxEj_kKFfVJaps85-57" target="woPbn98t3P-iTWukvZgP-17" edge="1">
          <mxGeometry width="160" relative="1" as="geometry">
            <mxPoint x="280" y="1200" as="sourcePoint" />
            <mxPoint x="680" y="780" as="targetPoint" />
          </mxGeometry>
        </mxCell>
        <mxCell id="DD-lqxEj_kKFfVJaps85-65" value="&amp;lt;&amp;lt;include&amp;gt;&amp;gt;" style="html=1;verticalAlign=bottom;labelBackgroundColor=none;endArrow=open;endFill=0;dashed=1;rounded=0;exitX=1;exitY=0.5;exitDx=0;exitDy=0;" parent="1" source="DD-lqxEj_kKFfVJaps85-58" target="woPbn98t3P-iTWukvZgP-17" edge="1">
          <mxGeometry width="160" relative="1" as="geometry">
            <mxPoint x="280" y="1371" as="sourcePoint" />
            <mxPoint x="638" y="768" as="targetPoint" />
          </mxGeometry>
        </mxCell>
        <mxCell id="DD-lqxEj_kKFfVJaps85-66" value="&amp;lt;&amp;lt;include&amp;gt;&amp;gt;" style="html=1;verticalAlign=bottom;labelBackgroundColor=none;endArrow=open;endFill=0;dashed=1;rounded=0;exitX=1;exitY=0.5;exitDx=0;exitDy=0;entryX=0;entryY=1;entryDx=0;entryDy=0;" parent="1" source="DD-lqxEj_kKFfVJaps85-59" target="woPbn98t3P-iTWukvZgP-17" edge="1">
          <mxGeometry width="160" relative="1" as="geometry">
            <mxPoint x="280" y="1461" as="sourcePoint" />
            <mxPoint x="680" y="780" as="targetPoint" />
          </mxGeometry>
        </mxCell>
        <mxCell id="0csRwr3EpI1_SjQ0noXX-1" value="&lt;div&gt;Hotel&lt;/div&gt;" style="shape=umlActor;verticalLabelPosition=bottom;verticalAlign=top;html=1;outlineConnect=0;" vertex="1" parent="1">
          <mxGeometry x="-160" y="320" width="70" height="100" as="geometry" />
        </mxCell>
        <mxCell id="0csRwr3EpI1_SjQ0noXX-8" value="" style="endArrow=none;html=1;rounded=0;exitX=1;exitY=0.3333333333333333;exitDx=0;exitDy=0;exitPerimeter=0;entryX=0;entryY=0.5;entryDx=0;entryDy=0;" edge="1" parent="1" source="0csRwr3EpI1_SjQ0noXX-1" target="woPbn98t3P-iTWukvZgP-10">
          <mxGeometry width="50" height="50" relative="1" as="geometry">
            <mxPoint x="-60" y="400" as="sourcePoint" />
            <mxPoint x="-10" y="350" as="targetPoint" />
          </mxGeometry>
        </mxCell>
        <mxCell id="0csRwr3EpI1_SjQ0noXX-9" value="" style="endArrow=none;html=1;rounded=0;exitX=1;exitY=0.3333333333333333;exitDx=0;exitDy=0;exitPerimeter=0;entryX=0;entryY=0.5;entryDx=0;entryDy=0;" edge="1" parent="1" source="0csRwr3EpI1_SjQ0noXX-1" target="woPbn98t3P-iTWukvZgP-11">
          <mxGeometry width="50" height="50" relative="1" as="geometry">
            <mxPoint x="-80" y="363" as="sourcePoint" />
            <mxPoint x="160" y="110" as="targetPoint" />
          </mxGeometry>
        </mxCell>
        <mxCell id="0csRwr3EpI1_SjQ0noXX-10" value="" style="endArrow=none;html=1;rounded=0;exitX=1;exitY=0.3333333333333333;exitDx=0;exitDy=0;exitPerimeter=0;entryX=0;entryY=0.5;entryDx=0;entryDy=0;" edge="1" parent="1" source="0csRwr3EpI1_SjQ0noXX-1" target="woPbn98t3P-iTWukvZgP-12">
          <mxGeometry width="50" height="50" relative="1" as="geometry">
            <mxPoint x="-80" y="363" as="sourcePoint" />
            <mxPoint x="160" y="200" as="targetPoint" />
          </mxGeometry>
        </mxCell>
        <mxCell id="0csRwr3EpI1_SjQ0noXX-11" value="" style="endArrow=none;html=1;rounded=0;exitX=1;exitY=0.3333333333333333;exitDx=0;exitDy=0;exitPerimeter=0;entryX=0;entryY=0.5;entryDx=0;entryDy=0;" edge="1" parent="1" source="0csRwr3EpI1_SjQ0noXX-1" target="woPbn98t3P-iTWukvZgP-13">
          <mxGeometry width="50" height="50" relative="1" as="geometry">
            <mxPoint x="-80" y="363" as="sourcePoint" />
            <mxPoint x="160" y="290" as="targetPoint" />
          </mxGeometry>
        </mxCell>
        <mxCell id="0csRwr3EpI1_SjQ0noXX-12" value="" style="endArrow=none;html=1;rounded=0;exitX=1;exitY=0.3333333333333333;exitDx=0;exitDy=0;exitPerimeter=0;entryX=0;entryY=0.5;entryDx=0;entryDy=0;" edge="1" parent="1" source="0csRwr3EpI1_SjQ0noXX-1" target="woPbn98t3P-iTWukvZgP-15">
          <mxGeometry width="50" height="50" relative="1" as="geometry">
            <mxPoint x="-80" y="363" as="sourcePoint" />
            <mxPoint x="160" y="380" as="targetPoint" />
          </mxGeometry>
        </mxCell>
        <mxCell id="0csRwr3EpI1_SjQ0noXX-14" value="" style="endArrow=none;html=1;rounded=0;exitX=1;exitY=0.3333333333333333;exitDx=0;exitDy=0;exitPerimeter=0;entryX=0;entryY=0.5;entryDx=0;entryDy=0;" edge="1" parent="1" source="0csRwr3EpI1_SjQ0noXX-1" target="DD-lqxEj_kKFfVJaps85-12">
          <mxGeometry width="50" height="50" relative="1" as="geometry">
            <mxPoint x="-80" y="363" as="sourcePoint" />
            <mxPoint x="160" y="470" as="targetPoint" />
          </mxGeometry>
        </mxCell>
        <mxCell id="0csRwr3EpI1_SjQ0noXX-15" value="" style="endArrow=none;html=1;rounded=0;exitX=1;exitY=0.3333333333333333;exitDx=0;exitDy=0;exitPerimeter=0;entryX=0;entryY=0.5;entryDx=0;entryDy=0;" edge="1" parent="1" source="0csRwr3EpI1_SjQ0noXX-1" target="DD-lqxEj_kKFfVJaps85-13">
          <mxGeometry width="50" height="50" relative="1" as="geometry">
            <mxPoint x="-80" y="363" as="sourcePoint" />
            <mxPoint x="160" y="560" as="targetPoint" />
          </mxGeometry>
        </mxCell>
        <mxCell id="0csRwr3EpI1_SjQ0noXX-16" value="&lt;div&gt;Super Admin&lt;/div&gt;" style="shape=umlActor;verticalLabelPosition=bottom;verticalAlign=top;html=1;outlineConnect=0;" vertex="1" parent="1">
          <mxGeometry x="-160" y="780" width="70" height="100" as="geometry" />
        </mxCell>
        <mxCell id="0csRwr3EpI1_SjQ0noXX-17" value="" style="endArrow=none;html=1;rounded=0;exitX=1;exitY=0.3333333333333333;exitDx=0;exitDy=0;exitPerimeter=0;entryX=0;entryY=0.5;entryDx=0;entryDy=0;" edge="1" parent="1" source="0csRwr3EpI1_SjQ0noXX-16" target="DD-lqxEj_kKFfVJaps85-57">
          <mxGeometry width="50" height="50" relative="1" as="geometry">
            <mxPoint x="-80" y="333" as="sourcePoint" />
            <mxPoint x="160" y="620" as="targetPoint" />
          </mxGeometry>
        </mxCell>
        <mxCell id="0csRwr3EpI1_SjQ0noXX-18" value="" style="endArrow=none;html=1;rounded=0;exitX=1;exitY=0.3333333333333333;exitDx=0;exitDy=0;exitPerimeter=0;entryX=0;entryY=0.5;entryDx=0;entryDy=0;" edge="1" parent="1" source="0csRwr3EpI1_SjQ0noXX-16" target="DD-lqxEj_kKFfVJaps85-58">
          <mxGeometry width="50" height="50" relative="1" as="geometry">
            <mxPoint x="-80" y="823" as="sourcePoint" />
            <mxPoint x="160" y="781" as="targetPoint" />
          </mxGeometry>
        </mxCell>
        <mxCell id="0csRwr3EpI1_SjQ0noXX-19" value="" style="endArrow=none;html=1;rounded=0;exitX=1;exitY=0.3333333333333333;exitDx=0;exitDy=0;exitPerimeter=0;entryX=0;entryY=0.5;entryDx=0;entryDy=0;" edge="1" parent="1" source="0csRwr3EpI1_SjQ0noXX-16" target="DD-lqxEj_kKFfVJaps85-59">
          <mxGeometry width="50" height="50" relative="1" as="geometry">
            <mxPoint x="-80" y="823" as="sourcePoint" />
            <mxPoint x="160" y="871" as="targetPoint" />
          </mxGeometry>
        </mxCell>
        <mxCell id="0csRwr3EpI1_SjQ0noXX-20" value="Agency" style="shape=umlActor;verticalLabelPosition=bottom;verticalAlign=top;html=1;outlineConnect=0;" vertex="1" parent="1">
          <mxGeometry x="-160" y="1140" width="70" height="100" as="geometry" />
        </mxCell>
        <mxCell id="0csRwr3EpI1_SjQ0noXX-21" value="&amp;lt;&amp;lt;extend&amp;gt;&amp;gt;" style="html=1;verticalAlign=bottom;labelBackgroundColor=none;endArrow=open;endFill=0;dashed=1;rounded=0;entryX=1;entryY=0.5;entryDx=0;entryDy=0;exitX=0;exitY=0.5;exitDx=0;exitDy=0;" edge="1" parent="1" source="woPbn98t3P-iTWukvZgP-16" target="DD-lqxEj_kKFfVJaps85-12">
          <mxGeometry width="160" relative="1" as="geometry">
            <mxPoint x="620" y="290" as="sourcePoint" />
            <mxPoint x="280" y="470" as="targetPoint" />
          </mxGeometry>
        </mxCell>
        <mxCell id="0csRwr3EpI1_SjQ0noXX-22" value="&amp;lt;&amp;lt;extend&amp;gt;&amp;gt;" style="html=1;verticalAlign=bottom;labelBackgroundColor=none;endArrow=open;endFill=0;dashed=1;rounded=0;exitX=0;exitY=0.5;exitDx=0;exitDy=0;entryX=1;entryY=0.5;entryDx=0;entryDy=0;" edge="1" parent="1" source="woPbn98t3P-iTWukvZgP-16" target="DD-lqxEj_kKFfVJaps85-13">
          <mxGeometry width="160" relative="1" as="geometry">
            <mxPoint x="638" y="318" as="sourcePoint" />
            <mxPoint x="280" y="560" as="targetPoint" />
          </mxGeometry>
        </mxCell>
        <mxCell id="0csRwr3EpI1_SjQ0noXX-23" value="" style="endArrow=none;html=1;rounded=0;exitX=1;exitY=0.3333333333333333;exitDx=0;exitDy=0;exitPerimeter=0;entryX=0;entryY=0.5;entryDx=0;entryDy=0;" edge="1" parent="1" source="0csRwr3EpI1_SjQ0noXX-20" target="DD-lqxEj_kKFfVJaps85-24">
          <mxGeometry width="50" height="50" relative="1" as="geometry">
            <mxPoint x="-80" y="823" as="sourcePoint" />
            <mxPoint x="160" y="961" as="targetPoint" />
          </mxGeometry>
        </mxCell>
        <mxCell id="0csRwr3EpI1_SjQ0noXX-24" value="" style="endArrow=none;html=1;rounded=0;exitX=1;exitY=0.3333333333333333;exitDx=0;exitDy=0;exitPerimeter=0;" edge="1" parent="1" source="0csRwr3EpI1_SjQ0noXX-20" target="DD-lqxEj_kKFfVJaps85-25">
          <mxGeometry width="50" height="50" relative="1" as="geometry">
            <mxPoint x="-80" y="1183" as="sourcePoint" />
            <mxPoint x="160" y="1090" as="targetPoint" />
          </mxGeometry>
        </mxCell>
        <mxCell id="0csRwr3EpI1_SjQ0noXX-25" value="" style="endArrow=none;html=1;rounded=0;exitX=1;exitY=0.3333333333333333;exitDx=0;exitDy=0;exitPerimeter=0;" edge="1" parent="1" source="0csRwr3EpI1_SjQ0noXX-20" target="DD-lqxEj_kKFfVJaps85-26">
          <mxGeometry width="50" height="50" relative="1" as="geometry">
            <mxPoint x="-70" y="1193" as="sourcePoint" />
            <mxPoint x="160" y="1183" as="targetPoint" />
          </mxGeometry>
        </mxCell>
        <mxCell id="0csRwr3EpI1_SjQ0noXX-27" value="Create" style="ellipse;whiteSpace=wrap;html=1;" vertex="1" parent="1">
          <mxGeometry x="80" y="1330" width="120" height="80" as="geometry" />
        </mxCell>
        <mxCell id="0csRwr3EpI1_SjQ0noXX-28" value="Cancel" style="ellipse;whiteSpace=wrap;html=1;" vertex="1" parent="1">
          <mxGeometry x="210" y="1330" width="120" height="80" as="geometry" />
        </mxCell>
        <mxCell id="0csRwr3EpI1_SjQ0noXX-29" value="" style="endArrow=none;html=1;rounded=0;entryX=0.5;entryY=1;entryDx=0;entryDy=0;exitX=0.5;exitY=0;exitDx=0;exitDy=0;" edge="1" parent="1" source="0csRwr3EpI1_SjQ0noXX-27" target="DD-lqxEj_kKFfVJaps85-26">
          <mxGeometry width="50" height="50" relative="1" as="geometry">
            <mxPoint x="290" y="1320" as="sourcePoint" />
            <mxPoint x="340" y="1270" as="targetPoint" />
          </mxGeometry>
        </mxCell>
        <mxCell id="0csRwr3EpI1_SjQ0noXX-31" value="" style="endArrow=none;html=1;rounded=0;exitX=0.5;exitY=1;exitDx=0;exitDy=0;entryX=0.5;entryY=0;entryDx=0;entryDy=0;" edge="1" parent="1" source="DD-lqxEj_kKFfVJaps85-26" target="0csRwr3EpI1_SjQ0noXX-28">
          <mxGeometry width="50" height="50" relative="1" as="geometry">
            <mxPoint x="150" y="1340" as="sourcePoint" />
            <mxPoint x="220" y="1310" as="targetPoint" />
          </mxGeometry>
        </mxCell>
      </root>
    </mxGraphModel>
  </diagram>
</mxfile>
